<?xml version="1.0" encoding="UTF-8" standalone="no"?>
<svg
   xmlns:dc="http://purl.org/dc/elements/1.1/"
   xmlns:cc="http://creativecommons.org/ns#"
   xmlns:rdf="http://www.w3.org/1999/02/22-rdf-syntax-ns#"
   xmlns:svg="http://www.w3.org/2000/svg"
   xmlns="http://www.w3.org/2000/svg"
   xmlns:sodipodi="http://sodipodi.sourceforge.net/DTD/sodipodi-0.dtd"
   xmlns:inkscape="http://www.inkscape.org/namespaces/inkscape"
   inkscape:version="1.0 (4035a4fb49, 2020-05-01)"
   height="104.9"
   width="484.29999"
   sodipodi:docname="ImpVis-minifiedlogo.svg"
   xml:space="preserve"
   viewBox="0 0 484.29997 104.9"
   y="0px"
   x="0px"
   id="Layer_1"
   version="1.1"><metadata
   id="metadata276"><rdf:RDF><cc:Work
       rdf:about=""><dc:format>image/svg+xml</dc:format><dc:type
         rdf:resource="http://purl.org/dc/dcmitype/StillImage" /><dc:title></dc:title></cc:Work></rdf:RDF></metadata><defs
   id="defs274" /><sodipodi:namedview
   inkscape:current-layer="Layer_1"
   inkscape:window-maximized="0"
   inkscape:window-y="27"
   inkscape:window-x="0"
   inkscape:cy="-73.22596"
   inkscape:cx="708.65"
   inkscape:zoom="0.58138714"
   showgrid="false"
   id="namedview272"
   inkscape:window-height="945"
   inkscape:window-width="1554"
   inkscape:pageshadow="2"
   inkscape:pageopacity="0"
   guidetolerance="10"
   gridtolerance="10"
   objecttolerance="10"
   borderopacity="1"
   bordercolor="#666666"
   pagecolor="#ffffff" />
<style
   id="style162"
   type="text/css">
	.st0{fill:#008AD1;}
	.st1{fill:#133F6F;}
	.st2{fill:#17B0A2;}
	.st3{fill:#A7CB6A;}
	.st4{fill:url(#SVGID_1_);}
	.st5{fill:url(#SVGID_2_);}
	.st6{fill:url(#SVGID_3_);}
</style>

<g
   transform="translate(-466.9,-620.9)"
   id="g269">
	<g
   id="g204">
		<path
   id="path198"
   d="M 486.8,620.9 V 725 H 466.9 V 620.9 Z"
   class="st1" />
		<path
   id="path200"
   d="m 615.3,725 h -19.4 l -2.7,-43.5 c -0.9,-15.6 -1.4,-27.9 -1.4,-37.1 V 639 l -19,74.7 H 554 l -20.2,-74.9 c 0.2,6.6 0.3,11.6 0.3,15.1 0,9.1 -0.3,18.5 -0.9,28.2 l -2.6,42.9 h -19.3 l 8.3,-104.1 h 25.6 l 18.5,72.9 17.5,-72.9 h 25.9 z"
   class="st1" />
		<path
   id="path202"
   d="m 701.8,629.2 c 7.4,5.5 11.1,13.8 11.1,24.9 0,11.5 -3.7,20.2 -11.1,26 -7.4,5.8 -17.3,8.7 -29.7,8.7 H 659.9 V 725 H 640 V 620.9 h 30.7 c 13.3,0 23.7,2.8 31.1,8.3 z m -15.2,40.1 c 3.6,-3 5.4,-8.1 5.4,-15.3 0,-12.4 -7.2,-18.5 -21.5,-18.5 h -10.7 v 38.3 h 10.7 c 7.1,0 12.5,-1.5 16.1,-4.5 z"
   class="st1" />
	</g>
	<linearGradient
   y2="673.76141"
   x2="945.56189"
   y1="673.76141"
   x1="728.87561"
   gradientUnits="userSpaceOnUse"
   id="SVGID_1_">
		<stop
   id="stop206"
   style="stop-color:#133F6F"
   offset="0" />
		<stop
   id="stop208"
   style="stop-color:#114678"
   offset="9.079291e-03" />
		<stop
   id="stop210"
   style="stop-color:#0C5B94"
   offset="4.193206e-02" />
		<stop
   id="stop212"
   style="stop-color:#086CAA"
   offset="7.927502e-02" />
		<stop
   id="stop214"
   style="stop-color:#047ABC"
   offset="0.1223" />
		<stop
   id="stop216"
   style="stop-color:#0283C8"
   offset="0.1747" />
		<stop
   id="stop218"
   style="stop-color:#0088CF"
   offset="0.246" />
		<stop
   id="stop220"
   style="stop-color:#008AD1"
   offset="0.4218" />
		<stop
   id="stop222"
   style="stop-color:#A6CC77"
   offset="1" />
	</linearGradient>
	<path
   style="fill:url(#SVGID_1_)"
   id="path225"
   d="m 725,627.2 42.7,88.2 45.5,-93.7 h 17.4 L 780,725.8 h -6.1 l 47.9,-98.6 h -5.2 l -47.7,98.6 h -2.5 L 716.3,621.7 h 29 l 25.6,52.9 -3.1,6.4 -25.9,-53.8 z m 42.8,77.9 -35.4,-73.1 h 6.1 l 29.3,60.5 34,-70.8 h 6.2 z"
   class="st4" />
	<linearGradient
   y2="673.76141"
   x2="945.56189"
   y1="673.76141"
   x1="728.87561"
   gradientUnits="userSpaceOnUse"
   id="SVGID_2_">
		<stop
   id="stop227"
   style="stop-color:#133F6F"
   offset="0" />
		<stop
   id="stop229"
   style="stop-color:#114678"
   offset="9.079291e-03" />
		<stop
   id="stop231"
   style="stop-color:#0C5B94"
   offset="4.193206e-02" />
		<stop
   id="stop233"
   style="stop-color:#086CAA"
   offset="7.927502e-02" />
		<stop
   id="stop235"
   style="stop-color:#047ABC"
   offset="0.1223" />
		<stop
   id="stop237"
   style="stop-color:#0283C8"
   offset="0.1747" />
		<stop
   id="stop239"
   style="stop-color:#0088CF"
   offset="0.246" />
		<stop
   id="stop241"
   style="stop-color:#008AD1"
   offset="0.4218" />
		<stop
   id="stop243"
   style="stop-color:#A6CC77"
   offset="1" />
	</linearGradient>
	<path
   style="fill:url(#SVGID_2_)"
   id="path246"
   d="m 853.6,621.7 v 94.1 h -5.4 V 627 h -4.9 v 93.4 h 15 v -98.7 h 5.4 V 725.8 H 838 V 621.7 Z"
   class="st5" />
	<linearGradient
   y2="673.76141"
   x2="945.56189"
   y1="673.76141"
   x1="728.87561"
   gradientUnits="userSpaceOnUse"
   id="SVGID_3_">
		<stop
   id="stop248"
   style="stop-color:#133F6F"
   offset="0" />
		<stop
   id="stop250"
   style="stop-color:#114678"
   offset="9.079291e-03" />
		<stop
   id="stop252"
   style="stop-color:#0C5B94"
   offset="4.193206e-02" />
		<stop
   id="stop254"
   style="stop-color:#086CAA"
   offset="7.927502e-02" />
		<stop
   id="stop256"
   style="stop-color:#047ABC"
   offset="0.1223" />
		<stop
   id="stop258"
   style="stop-color:#0283C8"
   offset="0.1747" />
		<stop
   id="stop260"
   style="stop-color:#0088CF"
   offset="0.246" />
		<stop
   id="stop262"
   style="stop-color:#008AD1"
   offset="0.4218" />
		<stop
   id="stop264"
   style="stop-color:#A6CC77"
   offset="1" />
	</linearGradient>
	<path
   style="fill:url(#SVGID_3_)"
   id="path267"
   d="m 895.8,701.3 -4.2,-2.2 -7.4,12 4.2,2.2 c 9.1,4.3 18.9,7.1 26.5,7.1 0.7,0 3.7,-0.4 8.9,-1.2 7.3,-2.2 12.8,-6.7 16.2,-13.5 l 0.3,-0.6 c 1.6,-3.1 2.4,-6.8 2.4,-11.2 0,-3.6 -0.7,-6.8 -2.2,-9.8 -2.4,-4.9 -6.5,-9.1 -12.3,-12.3 -4.3,-2.1 -6.7,-3.1 -7.1,-3.3 l -3.7,-1.2 -1.9,-0.6 c -8,-2.4 -13.1,-5.6 -15,-9.7 -0.4,-0.7 -0.7,-1.9 -0.7,-3.6 0,-2.2 0.3,-4 1,-5.4 l 0.1,-0.3 c 1.6,-3.1 4,-5.1 7.3,-5.9 0.7,-0.4 2.4,-0.6 5.2,-0.6 5.6,0 13.4,2.4 23,7.1 l 2.4,-3.7 c -9.4,-5.2 -18,-7.9 -25.9,-7.9 l -5.9,0.7 c -4.5,1.3 -7.9,4.2 -10.3,8.5 -1,1.9 -1.5,4.2 -1.5,7 0,2.2 0.4,4.2 1.3,5.9 2.4,5.2 8.2,9.1 17.5,11.9 l 1.9,0.6 c 11.4,4 22.3,8.2 22.3,22.3 0,8.9 -4.3,16.1 -11.3,19.5 -3.6,1.8 -7.6,2.7 -11.9,2.7 -7.7,0 -15.8,-2.1 -24.2,-6.4 l 0.1,-0.3 2.5,-4.3 c 9.2,3.7 16.4,5.6 21.4,5.6 7.4,0 12.8,-2.8 15.9,-8.3 1.3,-2.5 2.1,-5.4 2.1,-8.3 0,-5.4 -2.4,-9.4 -7.1,-12.2 -2.7,-1.5 -5.1,-2.7 -7.3,-3.6 l -4,-1.5 -1.9,-0.6 c -10.9,-3.3 -17.8,-8.2 -21,-14.9 -1.2,-2.5 -1.8,-5.2 -1.8,-8 0,-3.7 0.6,-6.7 1.9,-9.2 3,-5.8 7.6,-9.7 13.7,-11.4 1.3,-0.7 3.9,-1 7.9,-1 9.1,0 21.4,4.2 30.5,10.1 l 2.4,1.3 -8,12.8 -2.2,-1.3 c -7.1,-4.6 -16.4,-7.9 -22.7,-7.9 -4.8,0 -5.9,0.6 -7.1,2.8 -0.7,1 -1,2.4 -1,3.9 l 0.3,1.6 c 0.4,0.6 1.5,1.6 3.3,3.1 1.3,1 4.2,2.4 8.3,3.7 l 2.1,0.6 c 13.2,4.2 21.7,10.3 25.7,18.3 2.2,5.5 3.4,10 3.4,13.5 0,4 -0.9,8.3 -2.7,12.9 l -0.6,1 c -4.3,8.3 -10.9,13.8 -19.6,16.4 -3.1,0.9 -6.5,1.3 -10.3,1.3 -11.3,0 -25.3,-4.5 -35.8,-11.6 l -2.2,-1.3 13.1,-21.1 2.2,1.3 c 7.1,4.6 16.4,7.9 22.7,7.9 4,0 6.5,-1.2 7.6,-3.6 0.4,-0.7 0.6,-1.6 0.6,-3 0,-0.7 -0.1,-1.3 -0.4,-1.8 l -0.1,-0.3 c -1.3,-2.4 -4.9,-4.5 -11,-6.4 l -1.8,-0.6 c -13.4,-4 -22.3,-10.6 -26.9,-19.8 -1.8,-3.6 -2.7,-7.6 -2.7,-12.2 0,-4.3 0.9,-8.6 2.7,-12.9 l 0.4,-1 c 4.3,-8.5 10.9,-13.8 19.6,-16.2 2.5,-1 6.1,-1.5 10.4,-1.5 10.9,0 23.3,4.3 37.8,13.1 l -2.8,4.6 c -13.2,-8.2 -25,-12.3 -35.1,-12.3 -0.7,0 -3.7,0.4 -8.9,1.2 -7.3,2.2 -12.8,6.7 -16.2,13.5 l -0.3,0.6 c -1.5,3.7 -2.2,7.3 -2.2,11 0,3.6 0.7,6.8 2.2,9.8 3.7,7.9 11.4,13.5 23.5,17.1 l 0.4,0.1 1.5,0.4 c 7.9,2.5 12.2,5.2 14.1,9.2 l 0.3,0.6 c 0.6,1.5 0.9,2.7 0.9,3.7 0,2.1 -0.3,3.7 -1,5.1 l -0.1,0.3 c -1.5,3 -3.9,4.9 -7.3,5.8 -0.7,0.4 -2.4,0.6 -5.1,0.6 -5.6,0.4 -12,-1.3 -19.3,-4.5 z"
   class="st6" />
</g>
</svg>
